<svg width="33" height="36" viewBox="0 0 33 36" fill="none" xmlns="http://www.w3.org/2000/svg">
<path fill-rule="evenodd" clip-rule="evenodd" d="M32.3077 0L29.457 31.9043L16.1538 35.6578L2.85068 31.9043L0 0H32.3077ZM8.36273 20.644H12.1636L12.2564 22.9899L16.1538 24.3021L20.0513 22.9899L20.3334 18.7672H11.9743L11.7813 15.0138H20.5264L20.8085 11.2603H7.69832L7.41251 7.5069H24.8024L24.3273 15.0138L23.6591 25.805L16.1538 28.2462L8.64854 25.805L8.36273 20.644Z" fill="#1A00BC"/>
<path d="M7.72646 10.9317L7.12817 6.74365H24.4786L23.282 25.889L16.1025 28.2821L8.32476 25.889V20.5043H11.9145L12.5128 22.8975L16.1025 24.0941L20.2906 22.8975V18.7095H11.9145V14.5214H20.2906L20.8889 10.9317H7.72646Z" fill="#F5F2F2" stroke="#1A00BC"/>
</svg>
