<svg width="66" height="66" viewBox="0 0 66 66" fill="none" xmlns="http://www.w3.org/2000/svg">
<rect width="66" height="66" rx="8" fill="#1F1F21"/>
<g clip-path="url(#clip0_427_10)">
<path d="M32.4999 6.00003C38.6331 5.99827 44.5772 8.12332 49.3193 12.0131C54.0613 15.9028 57.3079 21.3165 58.5056 27.3317C59.7034 33.3469 58.7784 39.5913 55.8881 45.0008C52.9978 50.4103 48.3211 54.6503 42.655 56.9981C36.9889 59.346 30.684 59.6564 24.8147 57.8765C18.9453 56.0966 13.8748 52.3366 10.4671 47.2372C7.05936 42.1377 5.52534 36.0144 6.12644 29.9106C6.72753 23.8069 9.42655 18.1005 13.7635 13.7637C16.2206 11.2984 19.1409 9.34334 22.3565 8.01094C25.572 6.67855 29.0192 5.99513 32.4999 6.00003ZM19.8968 40.2421L28.4714 31.646L19.8968 24.6544V40.2421ZM29.416 32.4138L20.574 41.2773H44.3481L35.9029 32.4138L33.1166 34.7903C33.0072 34.88 32.87 34.929 32.7285 34.929C32.5869 34.929 32.4498 34.88 32.3403 34.7903L29.416 32.4051V32.4138ZM36.826 31.6288L45.1029 40.3111V24.5768L36.826 31.6288ZM20.6646 23.7228L32.6983 33.5395L44.236 23.7228H20.6646ZM48.8726 16.1144C45.0817 12.3247 40.0942 9.96655 34.7597 9.44176C29.4252 8.91697 24.0738 10.258 19.6171 13.2363C15.1604 16.2146 11.8743 20.646 10.3185 25.7755C8.76264 30.905 9.03344 36.4153 11.0847 41.3675C13.136 46.3197 16.8408 50.4076 21.568 52.9346C26.2952 55.4616 31.7524 56.2714 37.0097 55.2261C42.2671 54.1808 46.9993 51.345 50.4003 47.2019C53.8013 43.0587 55.6606 37.8646 55.6615 32.5043C55.6657 29.4598 55.0681 26.4445 53.9031 23.6317C52.738 20.8189 51.0284 18.2642 48.8726 16.1144Z" fill="#FEFBFB"/>
</g>
<defs>
<clipPath id="clip0_427_10">
<rect width="53" height="53" fill="white" transform="translate(6 6)"/>
</clipPath>
</defs>
</svg>
