<svg width="35" height="48" viewBox="0 0 35 48" fill="none" xmlns="http://www.w3.org/2000/svg">
<rect x="4" y="2" width="13" height="42" fill="#D6D4D4"/>
<rect x="30" y="2" width="13" height="24" transform="rotate(90 30 2)" fill="#D6D4D4"/>
<path d="M9.75962 0C4.39521 0 0 4.15536 0 9.22701C0 12.1851 1.5907 14.7116 3.9013 16.4036C1.5907 18.0955 0 20.6221 0 23.5801C0 26.5382 1.5907 29.0647 3.9013 30.7567C1.5907 32.4487 0 34.9752 0 37.9333C0 43.0049 4.39521 47.1603 9.75962 47.1603C15.124 47.1603 19.5192 43.0049 19.5192 37.9333V30.7567V18.454H24.9412C30.3056 18.454 34.7009 14.2987 34.7009 9.22701C34.7009 4.15536 30.3056 0 24.9412 0H17.3504H9.75962ZM9.75962 4.10089H15.1816V14.3531H9.75962C6.73942 14.3531 4.33761 12.0824 4.33761 9.22701C4.33761 6.37164 6.73942 4.10089 9.75962 4.10089ZM19.5192 4.10089H24.9412C27.9614 4.10089 30.3632 6.37164 30.3632 9.22701C30.3632 12.0824 27.9614 14.3531 24.9412 14.3531H19.5192V4.10089ZM9.75962 18.454H15.1816V28.7063H9.75962C6.73942 28.7063 4.33761 26.4355 4.33761 23.5801C4.33761 20.7248 6.73942 18.454 9.75962 18.454ZM26.0256 18.454C24.3 18.454 22.6451 19.1021 21.4249 20.2557C20.2047 21.4093 19.5192 22.9739 19.5192 24.6054C19.5192 26.2368 20.2047 27.8014 21.4249 28.955C22.6451 30.1086 24.3 30.7567 26.0256 30.7567C27.7512 30.7567 29.4062 30.1086 30.6264 28.955C31.8466 27.8014 32.5321 26.2368 32.5321 24.6054C32.5321 22.9739 31.8466 21.4093 30.6264 20.2557C29.4062 19.1021 27.7512 18.454 26.0256 18.454ZM9.75962 32.8072H15.1816V37.9333C15.1816 40.7886 12.7798 43.0594 9.75962 43.0594C6.73942 43.0594 4.33761 40.7886 4.33761 37.9333C4.33761 35.0779 6.73942 32.8072 9.75962 32.8072Z" fill="#1A00BC"/>
</svg>
