<svg width="66" height="66" viewBox="0 0 66 66" fill="none" xmlns="http://www.w3.org/2000/svg">
<rect width="66" height="66" rx="8" fill="#1F1F21"/>
<path d="M32.5568 12.0014C20.6514 12.0014 11 21.6528 11 33.5582C11 43.0241 17.1022 51.0669 25.5878 53.9635L25.7401 54.0081C26.8183 54.2107 27.2136 53.5452 27.2136 52.9716C27.2136 52.4599 27.1963 51.1029 27.1863 49.3074C21.1904 50.6084 19.9254 46.4152 19.9254 46.4152C19.5114 45.0855 18.6633 43.993 17.5492 43.2757L17.5262 43.2627C15.5741 41.9259 17.6772 41.9532 17.6772 41.9532C19.096 42.153 20.2848 42.9853 20.9676 44.1526L20.9791 44.1741C21.7755 45.6044 23.2791 46.5561 25.0056 46.5561C25.8336 46.5561 26.6098 46.3376 27.2797 45.9537L27.2567 45.9653C27.3602 44.8282 27.8619 43.8248 28.6209 43.0831L28.6223 43.0816C23.8354 42.5426 18.8028 40.6882 18.8028 32.4298C18.8028 32.3909 18.8013 32.3464 18.8013 32.3018C18.8013 30.1154 19.6451 28.1259 21.0251 26.6409L21.0208 26.6467C20.729 25.8676 20.5594 24.9677 20.5594 24.029C20.5594 22.9121 20.798 21.8497 21.2278 20.8924L21.2077 20.9412C21.2077 20.9412 23.0132 20.3634 27.1359 23.1507C28.7517 22.6892 30.6075 22.4233 32.5251 22.4233C34.4427 22.4233 36.2986 22.6892 38.0581 23.1852L37.9143 23.1507C42.0097 20.3634 43.8153 20.9412 43.8153 20.9412C44.2249 21.8641 44.4636 22.9394 44.4636 24.0707C44.4636 24.9936 44.3054 25.8791 44.0136 26.7013L44.0309 26.6467C45.4008 28.1302 46.2418 30.1197 46.2418 32.3061C46.2418 32.3507 46.2417 32.3938 46.2403 32.4369V32.4298C46.2403 40.7112 41.2019 42.5339 36.4049 43.0644C37.3134 43.9944 37.8741 45.2666 37.8741 46.6711C37.8741 46.8047 37.8683 46.9384 37.8583 47.0707L37.8597 47.0534C37.8597 49.9385 37.8324 52.2557 37.8324 52.9558C37.8324 53.5222 38.209 54.1949 39.3144 53.9793C47.9797 51.0626 54.1092 43.0126 54.1092 33.5294C54.1092 21.6384 44.4693 12 32.5798 12C32.5711 12 32.5611 12 32.5524 12H32.5539L32.5568 12.0014Z" fill="#FEFBFB"/>
</svg>
