<svg width="44" height="44" viewBox="0 0 44 44" fill="none" xmlns="http://www.w3.org/2000/svg">
<path d="M22 0.976535C10.0946 0.976535 0.443237 10.6279 0.443237 22.5333C0.443237 31.9992 6.54543 40.042 15.031 42.9386L15.1834 42.9832C16.2615 43.1858 16.6568 42.5203 16.6568 41.9467C16.6568 41.435 16.6395 40.078 16.6295 38.2825C10.6337 39.5835 9.36867 35.3903 9.36867 35.3903C8.95467 34.0606 8.10655 32.9681 6.99249 32.2508L6.96949 32.2378C5.01736 30.901 7.12043 30.9283 7.12043 30.9283C8.53924 31.1281 9.72805 31.9604 10.4109 33.1277L10.4224 33.1492C11.2187 34.5795 12.7224 35.5312 14.4488 35.5312C15.2768 35.5312 16.0531 35.3127 16.7229 34.9288L16.6999 34.9403C16.8034 33.8033 17.3051 32.7999 18.0641 32.0582L18.0655 32.0567C13.2787 31.5177 8.24599 29.6633 8.24599 21.4048C8.24599 21.366 8.24455 21.3215 8.24455 21.2769C8.24455 19.0905 9.08836 17.101 10.4684 15.616L10.464 15.6218C10.1722 14.8427 10.0026 13.9428 10.0026 13.0041C10.0026 11.8872 10.2412 10.8248 10.6711 9.86747L10.6509 9.91635C10.6509 9.91635 12.4564 9.33847 16.5792 12.1258C18.1949 11.6643 20.0507 11.3984 21.9684 11.3984C23.886 11.3984 25.7418 11.6643 27.5013 12.1603L27.3575 12.1258C31.453 9.33847 33.2585 9.91635 33.2585 9.91635C33.6682 10.8392 33.9068 11.9145 33.9068 13.0458C33.9068 13.9687 33.7487 14.8542 33.4569 15.6764L33.4741 15.6218C34.8441 17.1053 35.685 19.0948 35.685 21.2812C35.685 21.3258 35.685 21.3689 35.6835 21.412V21.4048C35.6835 29.6863 30.6451 31.509 25.8482 32.0395C26.7567 32.9695 27.3173 34.2417 27.3173 35.6462C27.3173 35.7798 27.3116 35.9135 27.3015 36.0458L27.3029 36.0285C27.3029 38.9136 27.2756 41.2308 27.2756 41.9309C27.2756 42.4973 27.6522 43.17 28.7577 42.9544C37.4229 40.0377 43.5524 31.9877 43.5524 22.5045C43.5524 10.6135 33.9126 0.975098 22.023 0.975098C22.0144 0.975098 22.0043 0.975098 21.9957 0.975098H21.9971L22 0.976535Z" fill="#FEFBFB"/>
</svg>
