<svg width="26" height="18" viewBox="0 0 26 18" fill="none" xmlns="http://www.w3.org/2000/svg">
<path d="M16.1973 11.8048C16.9864 13.0169 17.8438 14.1783 19.6603 14.1783C21.1859 14.1783 21.9864 13.4612 21.9864 12.4691C21.9864 11.2818 21.1586 10.8602 19.4801 10.1689L18.5599 9.79798C15.9043 8.73256 14.138 7.39755 14.138 4.57764C14.138 1.97879 16.2418 0.00107777 19.5291 0.00107777C21.8701 0.00107777 23.552 0.767792 24.7652 2.7757L21.8986 4.50862C21.268 3.4432 20.5862 3.02372 19.5291 3.02372C18.4505 3.02372 17.7675 3.6675 17.7675 4.50862C17.7675 5.54816 18.4516 5.96872 20.0309 6.6125L20.951 6.98346C24.081 8.24406 25.8462 9.53162 25.8462 12.4259C25.8462 15.5446 23.2418 17.2538 19.7458 17.2538C16.3262 17.2538 14.3843 15.6308 13.3034 13.6218L16.1973 11.8048ZM2.98633 11.8932C3.5633 12.8702 4.44015 13.6218 5.70127 13.6218C6.90766 13.6218 7.60208 13.1711 7.60208 11.4188V0H11.4025V11.9709C11.4025 15.6017 9.17563 17.2538 5.92362 17.2538C2.98519 17.2538 0.864313 15.3709 0 13.6218L2.98633 11.8932Z" fill="#EBEBFF"/>
</svg>
