<svg width="66" height="66" viewBox="0 0 66 66" fill="none" xmlns="http://www.w3.org/2000/svg">
<rect width="66" height="66" rx="8" fill="#1F1F21"/>
<path d="M33 6.6001C18.4206 6.6001 6.59998 18.4207 6.59998 33.0001C6.59998 47.5795 18.4206 59.4001 33 59.4001C47.5794 59.4001 59.4 47.5795 59.4 33.0001C59.4 18.4207 47.5794 6.6001 33 6.6001ZM23.0912 18.4867C24.9436 18.4867 26.1778 19.7209 26.1778 21.3665C26.1778 23.0121 24.9436 24.2463 22.8866 24.2463C21.0342 24.2485 19.8 23.0121 19.8 21.3665C19.8 19.7209 21.0342 18.4867 23.0912 18.4867ZM26.4 44.0001H19.8V26.4001H26.4V44.0001ZM48.4 44.0001H42.1872V34.3817C42.1872 31.7219 40.5306 31.1081 39.9102 31.1081C39.2898 31.1081 37.2174 31.5173 37.2174 34.3817C37.2174 34.7909 37.2174 44.0001 37.2174 44.0001H30.8V26.4001H37.2196V28.8553C38.0468 27.4231 39.7034 26.4001 42.8098 26.4001C45.9162 26.4001 48.4 28.8553 48.4 34.3817V44.0001Z" fill="#FEFBFB"/>
</svg>
