<svg width="51" height="33" viewBox="0 0 51 33" fill="none" xmlns="http://www.w3.org/2000/svg">
<ellipse cx="24.8718" cy="15.1196" rx="20.9402" ry="13.7607" fill="#D6D4D4"/>
<path d="M25.3076 0.222168C11.218 0.222168 0.179443 7.29649 0.179443 16.3257C0.179443 25.3549 11.218 32.4292 25.3076 32.4292C39.3973 32.4292 50.4359 25.3549 50.4359 16.3257C50.4359 7.29649 39.3973 0.222168 25.3076 0.222168ZM22.6983 5.17709H25.4426L24.5715 10.132H27.0213C28.5755 10.132 29.6184 10.3885 30.2114 11.032C30.7922 11.6659 30.968 12.7063 30.7349 14.124L29.647 20.0419H26.8577L27.8597 14.5692C27.9824 13.8192 27.9333 13.2966 27.7207 13.0208C27.508 12.745 27.0418 12.6095 26.3424 12.6095H24.1461L22.821 20.0419H20.0726L22.6983 5.17709ZM10.6495 10.132H16.2322C18.8947 10.132 20.5061 12.2417 19.8763 15.3918C19.1442 19.0499 17.1811 20.0419 13.5738 20.0419H11.8479L11.2998 23.7581H8.52688L10.6495 10.132ZM32.6367 10.132H38.2194C40.8819 10.132 42.4933 12.2417 41.8635 15.3918C41.1314 19.0499 39.1682 20.0419 35.561 20.0419H33.835L33.287 23.7581H30.5141L32.6367 10.132ZM13.0257 12.6095L12.2364 17.5644H14.0278C15.5778 17.5644 17.0175 17.3563 17.2588 14.6224C17.3487 13.5627 16.9766 12.6095 15.1852 12.6095H13.0257ZM35.0129 12.6095L34.2236 17.5644H36.0149C37.565 17.5644 39.0046 17.3563 39.2459 14.6224C39.3359 13.5627 38.9637 12.6095 37.1724 12.6095H35.0129Z" fill="#1A00BC"/>
</svg>
