<svg width="66" height="66" viewBox="0 0 66 66" fill="none" xmlns="http://www.w3.org/2000/svg">
<rect width="66" height="66" rx="8" fill="#1F1F21"/>
<path d="M22.6241 31.7034C25.5613 36.9548 29.0136 40.6784 34.4011 43.4853C34.8683 43.0649 35.1178 42.7186 35.5043 42.2175C37.0325 40.2045 38.9359 37.7881 42.0533 39.2445C44.0871 40.274 48.0844 42.438 49.7748 43.6917C50.4184 44.144 50.8837 44.7146 51.197 45.3631C51.8621 46.7435 51.7758 48.3266 51.3537 49.7596C51.136 50.4972 50.8189 51.2282 50.4428 51.8907C49.0309 54.3719 46.6866 55.666 43.982 56.3689C40.6939 57.22 37.723 57.2435 34.4546 56.2356C31.9883 55.4727 29.6965 54.2396 27.5079 52.8883L27.2255 52.7137C26.1636 52.0521 25.0229 51.3408 23.8549 50.4718L23.8465 50.4643C21.5959 48.7695 19.3304 46.6844 17.276 44.3514C15.3735 42.1912 13.6399 39.8038 12.2561 37.3011C10.9878 35.0066 10.0159 32.5967 9.47466 30.1568C8.70447 26.6819 8.76169 22.6814 10.4709 19.4757C12.4719 15.7239 16.1033 14.1905 20.1691 14.549L20.2695 14.5612C20.9721 14.6494 21.611 15.0782 21.9571 15.6976L26.5829 23.5194C27.0351 24.1312 27.2978 24.7609 27.3859 25.4075C27.7227 27.8915 25.687 29.4192 23.945 30.6964C23.3511 31.1281 22.6879 31.6095 22.6241 31.7034ZM31.3363 26.8048C30.6421 26.6255 30.2247 25.9152 30.4038 25.2207C30.583 24.5254 31.2932 24.1078 31.9874 24.2879C36.1244 25.3671 39.8844 28.7745 41.1696 32.8792C41.3825 33.5652 41.0007 34.2962 40.314 34.5092C39.6283 34.7232 38.8975 34.3403 38.6845 33.6534C37.6695 30.4121 34.5991 27.6541 31.3363 26.8048ZM31.5089 18.8329C30.8007 18.7128 30.3241 18.039 30.4442 17.3305C30.5643 16.622 31.2378 16.1443 31.9461 16.2654C39.9528 17.6523 47.0299 24.3902 49.0253 32.2383C49.2026 32.9355 48.7804 33.6459 48.0834 33.8233C47.3855 34.0006 46.6753 33.5783 46.499 32.8801C44.7513 26.0053 38.5269 20.05 31.5089 18.8329ZM32.3457 11.5967C31.6318 11.5151 31.1187 10.8685 31.2003 10.1543C31.2819 9.44113 31.9273 8.92688 32.6412 9.00852C43.7756 10.312 53.5357 19.228 55.9691 30.154C56.1239 30.855 55.6811 31.5485 54.9813 31.7034C54.2815 31.8582 53.5873 31.4153 53.4334 30.7152C51.2383 20.8636 42.3863 12.7716 32.3457 11.5967ZM20.216 32.9299C20.1719 32.8576 20.1334 32.7816 20.1015 32.7009C19.3182 30.7133 20.9252 29.5459 22.3596 28.5062C23.0491 28.0088 24.2499 27.1961 24.6063 26.3712C24.8155 25.8917 24.7142 25.5342 24.4112 25.1259L24.2893 24.9523L19.7235 17.231C16.8125 17.0274 14.2956 18.0409 12.8518 20.7454C11.4597 23.3551 11.4841 26.7588 12.1079 29.5741C12.5864 31.7334 13.4682 33.903 14.6267 35.9995C17.2094 40.6728 21.2188 45.0975 25.4741 48.3078C26.5098 49.0802 27.6195 49.7736 28.6533 50.4174L28.9413 50.5976C32.6703 52.9155 36.6957 54.8289 41.2521 54.1561C41.9482 54.0538 42.6461 53.9243 43.3038 53.7544C45.9042 53.0778 47.9314 51.8185 48.7617 48.9976C49.0572 47.9935 49.1988 46.6083 48.2373 45.913C46.134 44.5391 43.1293 42.8668 40.8872 41.6797C39.7305 41.1645 38.5879 42.6135 37.6554 43.8419C36.9837 44.7202 36.2614 45.7234 35.1901 46.1251C34.6647 46.3221 34.1206 46.3165 33.6028 46.1035L33.4283 46.0293C27.3888 42.9485 23.4815 38.7969 20.216 32.9299Z" fill="#FEFBFB"/>
</svg>
