<svg width="39" height="37" viewBox="0 0 39 37" fill="none" xmlns="http://www.w3.org/2000/svg">
<path d="M0.358887 5.85473C0.358887 3.09331 2.59746 0.854736 5.35889 0.854736H33.6495C36.4109 0.854736 38.6495 3.09331 38.6495 5.85474V9.82909H0.358887V5.85473Z" fill="#1A00BC"/>
<ellipse cx="6.34185" cy="5.34189" rx="1.19658" ry="1.12179" fill="#F5F2F2"/>
<ellipse cx="11.7266" cy="5.34189" rx="1.19658" ry="1.12179" fill="#F5F2F2"/>
<rect x="23.094" y="4.78101" width="11.3675" height="1.68269" rx="0.841346" fill="#F5F2F2"/>
<path d="M0.358887 10.9508H38.6495V31.7521C38.6495 34.5135 36.4109 36.7521 33.6495 36.7521H5.35888C2.59746 36.7521 0.358887 34.5135 0.358887 31.7521V10.9508Z" fill="#1A00BC"/>
<rect x="12.3247" y="15.9989" width="2.39316" height="16.8269" rx="1.19658" fill="#D6D4D4"/>
<rect x="24.2905" y="15.9989" width="2.39316" height="16.8269" rx="1.19658" fill="#D6D4D4"/>
</svg>
