<svg width="35" height="34" viewBox="0 0 35 34" fill="none" xmlns="http://www.w3.org/2000/svg">
<ellipse cx="17.3162" cy="16.8034" rx="16.1538" ry="15.5556" fill="#D6D4D4"/>
<path d="M17.3504 0C7.76865 0 0 7.46786 0 16.6786C0 25.8894 7.76865 33.3573 17.3504 33.3573C26.9322 33.3573 34.7009 25.8894 34.7009 16.6786C34.7009 7.46786 26.9322 0 17.3504 0ZM30.4847 10.9009C30.489 11.0343 30.5107 11.1483 30.5107 11.2873C30.5107 12.7369 30.2273 14.3686 29.3786 16.4118L25.0598 28.4162C24.1431 28.975 23.1585 29.4336 22.1189 29.7839L17.6136 17.9268L13.289 30.0076C12.3636 29.7463 11.4773 29.4003 10.6387 28.9763L3.9718 11.4263C4.36363 10.5075 4.85234 9.63886 5.42924 8.82995C5.57672 8.83273 5.74299 8.8369 5.87312 8.8369C7.42887 8.8369 9.83914 8.65482 9.83914 8.65482C10.643 8.61174 10.7356 9.7431 9.93457 9.83484C9.93457 9.83484 9.12777 9.92518 8.23133 9.97104L13.6504 25.4697L16.9065 16.0782L14.5903 9.96826C13.7864 9.92518 13.0287 9.83484 13.0287 9.83484C12.2248 9.78897 12.3217 8.60896 13.1227 8.65482C13.1227 8.65482 15.5807 8.8369 17.041 8.8369C18.5968 8.8369 21.007 8.65482 21.007 8.65482C21.8109 8.61174 21.9035 9.7431 21.1025 9.83484C21.1025 9.83484 20.2942 9.92518 19.3992 9.97104L24.7779 25.3515L26.2642 20.5787C27.019 18.7204 27.3963 17.1818 27.3963 15.9545C27.3963 14.1866 26.737 12.9621 26.1688 12.01C25.4155 10.83 24.7056 9.83345 24.7056 8.65343C24.7056 7.47342 25.5442 6.37402 26.7746 6.15998C28.3419 7.46091 29.6114 9.07457 30.4847 10.9009Z" fill="#1A00BC"/>
</svg>
