<svg width="454" height="394" viewBox="0 0 454 394" fill="none" xmlns="http://www.w3.org/2000/svg">
<path d="M53.2651 219.832C51.0925 212.292 49.5838 204.576 48.7562 196.773L48.3839 193.263C47.1315 181.455 47.1412 169.546 48.4126 157.74V157.74C49.4688 147.933 51.3912 138.238 54.1573 128.769L56.5915 120.437C60.8402 105.893 67.2279 92.0621 75.545 79.3974V79.3974C81.8284 69.8294 89.1669 60.9976 97.4222 53.0681L109.73 41.2462C118.542 32.7821 128.38 25.4565 139.015 19.4408V19.4408C160.965 7.02508 185.753 0.5 210.97 0.5H233.648C253.411 0.5 273.036 3.79542 291.715 10.2507V10.2507C317.877 19.2919 341.566 34.3173 360.895 54.1302L363.864 57.1731C368.947 62.3828 373.607 67.9886 377.8 73.9375V73.9375C387.841 88.1821 395.077 104.209 399.121 121.161L401.618 131.631C404.529 143.835 406 156.338 406 168.885V168.885C406 188.138 402.537 207.234 395.777 225.262L386.5 250V250C381.036 261.803 390.63 275.027 403.546 273.495L429.992 270.357C431.981 270.121 433.997 270.243 435.943 270.718V270.718C445.421 273.029 450.934 282.91 447.925 292.19L447.5 293.5L446.361 297.96C443.13 310.615 438.517 322.876 432.604 334.521L429.294 341.043C426.438 346.668 423.058 352.013 419.2 357.005L415.465 361.84C405.082 375.277 390.76 385.134 374.501 390.034V390.034C366.875 392.332 358.953 393.5 350.989 393.5H218L104.184 391.708C95.5057 391.571 86.9695 389.485 79.2067 385.603V385.603C75.0837 383.542 71.2216 380.995 67.7026 378.018L63.8049 374.72C56.9657 368.933 50.9311 362.257 45.8617 354.87L20.6691 318.161C19.228 316.061 18.0373 313.8 17.1214 311.423L10.4602 294.14C5.42021 281.063 15.0717 267 29.086 267V267C30.3591 267 31.6292 267.122 32.8791 267.364L46.5 270V270C60.3973 272.153 70.3918 256.976 62.9241 245.06L59.9182 240.263C58.9774 238.762 58.2511 237.136 57.7605 235.434L53.2651 219.832Z" fill="#01030E"/>
<circle cx="228" cy="178" r="168" fill="white"/>
<path d="M17 278.5H438.5V278.5C432.905 322.952 404.712 361.347 363.974 379.994L358.5 382.5H108.5L107.311 381.94C64.0862 361.58 31.3422 324.076 17 278.5V278.5Z" fill="white"/>
<rect x="17" y="276" width="422" height="5" fill="#01030E"/>
<path d="M248.5 41L274.5 86L265.764 105.004C252.636 133.563 236.094 160.424 216.5 185V185V185C194.713 207.107 182.5 236.899 182.5 267.938V278.5H174V278.5C154.427 249.14 153.34 211.18 171.202 180.748L178.001 169.165C180.996 164.063 184.385 159.202 188.137 154.628L194.504 146.865C210.732 127.08 223.718 104.846 232.977 80.9909L248.5 41Z" fill="#01030E"/>
<path d="M284.5 103L303 131.5V131.5C298.712 154.92 289.688 177.218 276.481 197.029L265.5 213.5L238.5 248.5L230 263.5L224 276H194L195 263.5L196.093 257.639C198.996 242.067 205.257 227.314 214.441 214.407V214.407C217.476 210.141 220.815 206.099 224.431 202.313L230.171 196.303C250.848 174.654 266.981 149.083 277.619 121.1L284.5 103Z" fill="#01030E"/>
</svg>
