<svg width="466" height="466" viewBox="0 0 466 466" fill="none" xmlns="http://www.w3.org/2000/svg">
<rect width="466" height="466" fill="#01030E"/>
<circle cx="233" cy="190" r="168" fill="white"/>
<path d="M22 290.5H443.5V290.5C437.905 334.952 409.712 373.347 368.974 391.994L363.5 394.5H113.5L112.311 393.94C69.0862 373.58 36.3422 336.076 22 290.5V290.5Z" fill="white"/>
<rect x="22" y="288" width="422" height="5" fill="#01030E"/>
<path d="M253.5 53L279.5 98L270.764 117.004C257.636 145.563 241.094 172.424 221.5 197V197V197C199.713 219.107 187.5 248.899 187.5 279.938V290.5H179V290.5C159.427 261.14 158.34 223.18 176.202 192.748L183.001 181.165C185.996 176.063 189.385 171.202 193.137 166.628L199.504 158.865C215.732 139.08 228.718 116.846 237.977 92.9909L253.5 53Z" fill="#01030E"/>
<path d="M289.5 115L308 143.5V143.5C303.712 166.92 294.688 189.218 281.481 209.029L270.5 225.5L243.5 260.5L235 275.5L229 288H199L200 275.5L201.093 269.639C203.996 254.067 210.257 239.314 219.441 226.407V226.407C222.476 222.141 225.815 218.099 229.431 214.313L235.171 208.303C255.848 186.654 271.981 161.083 282.619 133.1L289.5 115Z" fill="#01030E"/>
</svg>
